<mxfile host="app.diagrams.net" modified="2024-05-05T22:41:43.822Z" agent="Mozilla/5.0 (Windows NT 10.0; Win64; x64) AppleWebKit/537.36 (KHTML, like Gecko) Chrome/123.0.0.0 Safari/537.36 Edg/123.0.0.0" etag="9XRSmbcz0Mt715D4p9vz" version="24.3.1" type="onedrive">
  <diagram name="PÃ¡gina-1" id="Oa6dAda2oM2kyvpP0XiP">
    <mxGraphModel grid="1" page="1" gridSize="10" guides="1" tooltips="1" connect="1" arrows="1" fold="1" pageScale="1" pageWidth="827" pageHeight="1169" math="0" shadow="0">
      <root>
        <mxCell id="0" />
        <mxCell id="1" parent="0" />
        <mxCell id="MIvY2RKmO17FQtTJNGd5-2" value="Tablero" style="swimlane;fontStyle=1;align=center;verticalAlign=top;childLayout=stackLayout;horizontal=1;startSize=26;horizontalStack=0;resizeParent=1;resizeParentMax=0;resizeLast=0;collapsible=1;marginBottom=0;whiteSpace=wrap;html=1;" vertex="1" parent="1">
          <mxGeometry x="600" y="350" width="230" height="140" as="geometry" />
        </mxCell>
        <mxCell id="MIvY2RKmO17FQtTJNGd5-3" value="- PosicionPieza: string&lt;div&gt;- PosicionDama: string&lt;/div&gt;" style="text;strokeColor=none;fillColor=none;align=left;verticalAlign=top;spacingLeft=4;spacingRight=4;overflow=hidden;rotatable=0;points=[[0,0.5],[1,0.5]];portConstraint=eastwest;whiteSpace=wrap;html=1;" vertex="1" parent="MIvY2RKmO17FQtTJNGd5-2">
          <mxGeometry y="26" width="230" height="34" as="geometry" />
        </mxCell>
        <mxCell id="MIvY2RKmO17FQtTJNGd5-4" value="" style="line;strokeWidth=1;fillColor=none;align=left;verticalAlign=middle;spacingTop=-1;spacingLeft=3;spacingRight=3;rotatable=0;labelPosition=right;points=[];portConstraint=eastwest;strokeColor=inherit;" vertex="1" parent="MIvY2RKmO17FQtTJNGd5-2">
          <mxGeometry y="60" width="230" height="8" as="geometry" />
        </mxCell>
        <mxCell id="MIvY2RKmO17FQtTJNGd5-5" value="&lt;div&gt;+ PosicionPieza: string&lt;/div&gt;&lt;div&gt;+ PosicionDama: string&lt;/div&gt;+ AgregarPieza(PosicionPieza: string, PosicionDama: string): void" style="text;strokeColor=none;fillColor=none;align=left;verticalAlign=top;spacingLeft=4;spacingRight=4;overflow=hidden;rotatable=0;points=[[0,0.5],[1,0.5]];portConstraint=eastwest;whiteSpace=wrap;html=1;" vertex="1" parent="MIvY2RKmO17FQtTJNGd5-2">
          <mxGeometry y="68" width="230" height="72" as="geometry" />
        </mxCell>
        <mxCell id="MIvY2RKmO17FQtTJNGd5-6" value="Pieza" style="swimlane;fontStyle=1;align=center;verticalAlign=top;childLayout=stackLayout;horizontal=1;startSize=26;horizontalStack=0;resizeParent=1;resizeParentMax=0;resizeLast=0;collapsible=1;marginBottom=0;whiteSpace=wrap;html=1;" vertex="1" parent="1">
          <mxGeometry x="600" y="200" width="230" height="140" as="geometry" />
        </mxCell>
        <mxCell id="MIvY2RKmO17FQtTJNGd5-7" value="- TipoPieza: string&lt;div&gt;- ColorPieza: string&lt;/div&gt;&lt;div&gt;- CantPiezas: int&lt;/div&gt;" style="text;strokeColor=none;fillColor=none;align=left;verticalAlign=top;spacingLeft=4;spacingRight=4;overflow=hidden;rotatable=0;points=[[0,0.5],[1,0.5]];portConstraint=eastwest;whiteSpace=wrap;html=1;" vertex="1" parent="MIvY2RKmO17FQtTJNGd5-6">
          <mxGeometry y="26" width="230" height="54" as="geometry" />
        </mxCell>
        <mxCell id="MIvY2RKmO17FQtTJNGd5-8" value="" style="line;strokeWidth=1;fillColor=none;align=left;verticalAlign=middle;spacingTop=-1;spacingLeft=3;spacingRight=3;rotatable=0;labelPosition=right;points=[];portConstraint=eastwest;strokeColor=inherit;" vertex="1" parent="MIvY2RKmO17FQtTJNGd5-6">
          <mxGeometry y="80" width="230" height="8" as="geometry" />
        </mxCell>
        <mxCell id="MIvY2RKmO17FQtTJNGd5-9" value="+ TipoPieza(): string&lt;div&gt;+ ColorPieza(): string&lt;/div&gt;&lt;div&gt;+ CantPiezas(): int&lt;/div&gt;" style="text;strokeColor=none;fillColor=none;align=left;verticalAlign=top;spacingLeft=4;spacingRight=4;overflow=hidden;rotatable=0;points=[[0,0.5],[1,0.5]];portConstraint=eastwest;whiteSpace=wrap;html=1;" vertex="1" parent="MIvY2RKmO17FQtTJNGd5-6">
          <mxGeometry y="88" width="230" height="52" as="geometry" />
        </mxCell>
        <mxCell id="MIvY2RKmO17FQtTJNGd5-10" value="Program" style="swimlane;fontStyle=1;align=center;verticalAlign=top;childLayout=stackLayout;horizontal=1;startSize=26;horizontalStack=0;resizeParent=1;resizeParentMax=0;resizeLast=0;collapsible=1;marginBottom=0;whiteSpace=wrap;html=1;" vertex="1" parent="1">
          <mxGeometry x="360" y="220" width="230" height="210" as="geometry" />
        </mxCell>
        <mxCell id="MIvY2RKmO17FQtTJNGd5-11" value="- TipoPieza: string&lt;div&gt;- ColorPieza: string&lt;/div&gt;&lt;div&gt;- PosicionPieza: string&lt;/div&gt;&lt;div&gt;- PosicionDama: string&lt;/div&gt;" style="text;strokeColor=none;fillColor=none;align=left;verticalAlign=top;spacingLeft=4;spacingRight=4;overflow=hidden;rotatable=0;points=[[0,0.5],[1,0.5]];portConstraint=eastwest;whiteSpace=wrap;html=1;" vertex="1" parent="MIvY2RKmO17FQtTJNGd5-10">
          <mxGeometry y="26" width="230" height="74" as="geometry" />
        </mxCell>
        <mxCell id="MIvY2RKmO17FQtTJNGd5-12" value="" style="line;strokeWidth=1;fillColor=none;align=left;verticalAlign=middle;spacingTop=-1;spacingLeft=3;spacingRight=3;rotatable=0;labelPosition=right;points=[];portConstraint=eastwest;strokeColor=inherit;" vertex="1" parent="MIvY2RKmO17FQtTJNGd5-10">
          <mxGeometry y="100" width="230" height="10" as="geometry" />
        </mxCell>
        <mxCell id="MIvY2RKmO17FQtTJNGd5-13" value="+ TipoPieza(): string&lt;div&gt;+ ColorPieza(): string&lt;/div&gt;&lt;div&gt;+ PosicionPieza: string&lt;/div&gt;&lt;div&gt;+ PosicionDama: string&lt;/div&gt;&lt;div&gt;+ AgregarPieza(PosicionPieza: string, PosicionDama: string): void&lt;br&gt;&lt;div&gt;&lt;br&gt;&lt;/div&gt;&lt;/div&gt;" style="text;strokeColor=none;fillColor=none;align=left;verticalAlign=top;spacingLeft=4;spacingRight=4;overflow=hidden;rotatable=0;points=[[0,0.5],[1,0.5]];portConstraint=eastwest;whiteSpace=wrap;html=1;" vertex="1" parent="MIvY2RKmO17FQtTJNGd5-10">
          <mxGeometry y="110" width="230" height="100" as="geometry" />
        </mxCell>
      </root>
    </mxGraphModel>
  </diagram>
</mxfile>
